<?xml version="1.0" encoding="UTF-8"?>
<svg id="katman_2" xmlns="http://www.w3.org/2000/svg" version="1.1" viewBox="0 0 123.08 119.49">
  <!-- Generator: Adobe Illustrator 29.7.1, SVG Export Plug-In . SVG Version: 2.1.1 Build 8)  -->
  <defs>
    <style>
      .st0 {
        fill: #0010ff;
      }
    </style>
  </defs>
  <g id="katman_1">
    <path class="st0" d="M119.55,56.91c-.14-.7-.23-1.53-.35-2.52-1.75-18.13-16.98-35.31-16.98-35.31C91.47,7.37,76.02,0,58.85,0,26.35,0,0,26.36,0,58.86s26.35,58.85,58.85,58.85c18.17-2.01,27.78-10.39,32.48-16.51l3.95-6.72s1.57,13.08,11.95,19.46c7.83,3.79,15.86,5.56,15.86,5.56,0,0-1.33-35.26-3.53-62.58M58.85,92.99h0c-18.87,0-34.15-15.29-34.15-34.15s15.29-34.15,34.15-34.15,34.15,15.29,34.15,34.15-15.29,34.15-34.15,34.15Z"/>
  </g>
</svg>

